<svg xmlns="http://www.w3.org/2000/svg" width="1024" height="1024" viewBox="0 0 1024 1024" version="1.1"><path d="M 463.593 207.375 C 455.998 211.973, 456.089 211.371, 456.042 257.250 L 456 298 415.250 298.002 C 369.813 298.003, 369.882 297.994, 365.270 304.898 C 363.018 308.268, 363 308.579, 363 343.148 L 363 378 321.950 378 C 277.597 378, 278.189 377.934, 273 383.484 L 270.500 386.159 270.212 420.079 L 269.924 454 229.366 454 C 184.047 454, 185.144 453.840, 181.094 461.046 C 179.084 464.622, 179 466.123, 179 498.265 L 179 531.757 176.008 532.997 C 170.480 535.286, 160.713 542.780, 155.891 548.431 C 146.385 559.571, 142.175 571.734, 141.329 590.500 C 139.508 630.926, 160.527 679.079, 196.440 716.757 C 240.101 762.563, 296.423 790.929, 368.839 803.584 C 400.426 809.104, 455.704 809.501, 485.921 804.425 C 513.188 799.845, 533.447 794.938, 555.500 787.572 C 606.759 770.450, 649.811 744.447, 687.532 707.828 L 696.564 699.059 725.532 728.143 C 756.438 759.173, 762.753 764.623, 771.775 768.049 C 780.446 771.342, 792.963 771.814, 801.649 769.175 C 812.415 765.905, 818.288 761.411, 853.814 729.254 C 884.863 701.150, 893.511 692.346, 896.502 685.794 C 902.055 673.629, 901.586 661.713, 895.034 648.500 C 890.417 639.188, 885.963 633.775, 866.647 614 C 858.857 606.025, 843.950 590.725, 833.519 580 C 823.089 569.275, 806.725 552.517, 797.155 542.759 L 779.755 525.018 783.339 516.675 C 787.603 506.748, 791.560 495.754, 792.489 491.250 C 792.857 489.463, 793.472 488, 793.856 488 C 794.239 488, 798.366 487.526, 803.026 486.946 C 817.796 485.109, 829.670 480.883, 841.500 473.254 C 850.156 467.672, 853.505 464.767, 861.143 456.220 C 869.034 447.389, 874.301 438.421, 878.687 426.351 C 881.746 417.934, 882.284 415.169, 882.383 407.352 C 882.495 398.572, 882.378 398.053, 879.456 394.434 C 872.808 386.199, 858.614 381.573, 840 381.575 C 826.345 381.576, 819.250 383.161, 806.266 389.107 C 802.685 390.747, 799.652 391.956, 799.525 391.794 C 799.399 391.633, 798.746 389.250, 798.074 386.500 C 797.402 383.750, 795.143 377.847, 793.053 373.381 C 782.449 350.728, 765.107 333.608, 744.572 325.522 C 738.838 323.264, 736.475 322.860, 730.856 323.178 C 724.970 323.511, 723.651 323.957, 720.944 326.531 C 711.679 335.341, 705.997 355.243, 706.004 378.860 C 706.010 397.558, 709.488 414.982, 716.461 431.242 C 717.095 432.721, 716.353 432.593, 711.552 430.395 C 704.661 427.241, 689.156 425.974, 681.337 427.927 C 675.025 429.503, 665.329 433.739, 661.317 436.672 C 659.566 437.953, 657.900 439, 657.614 439 C 657.328 439, 656.961 427.332, 656.797 413.071 C 656.363 375.162, 660.580 378.004, 604.750 378.002 L 564 378 564 296.648 L 564 215.296 561.730 211.898 C 557.098 204.964, 557.386 205.003, 510 205.007 L 467.500 205.010 463.593 207.375 M 474.110 223.367 C 473.298 224.346, 473.050 235.227, 473.238 261.617 L 473.500 298.500 509.933 298.763 C 538.415 298.968, 546.541 298.750, 547.168 297.763 C 548.542 295.598, 548.192 224.592, 546.800 223.200 C 544.934 221.334, 475.665 221.494, 474.110 223.367 M 380.571 315.571 C 379.214 316.929, 379 321.145, 379 346.500 C 379 371.855, 379.214 376.071, 380.571 377.429 C 381.942 378.799, 386.770 379, 418.371 379 C 445.216 379, 454.911 378.689, 455.800 377.800 C 456.680 376.920, 457 368.660, 457 346.871 C 457 321.179, 456.787 316.930, 455.429 315.571 C 454.058 314.201, 449.264 314, 418 314 C 386.736 314, 381.942 314.201, 380.571 315.571 M 474.200 315.200 C 472.485 316.915, 472.485 376.085, 474.200 377.800 C 475.920 379.520, 545.080 379.520, 546.800 377.800 C 548.364 376.236, 548.517 318.835, 546.965 315.934 C 545.971 314.078, 544.507 314, 510.665 314 C 484.570 314, 475.088 314.312, 474.200 315.200 M 731.114 342.786 C 725.755 353.323, 722.329 373.378, 723.490 387.428 C 725.245 408.662, 731.884 426.377, 744.008 442.179 L 746.064 444.859 740.215 451.179 L 734.366 457.500 736.113 462 C 739.165 469.864, 743.048 487.629, 743.787 497.108 L 744.500 506.269 751.863 508.657 C 755.913 509.970, 760.175 511.710, 761.335 512.522 C 762.496 513.335, 763.949 514, 764.565 514 C 766.606 514, 773.630 493.862, 776.908 478.616 L 778.652 470.500 788.076 470.268 C 824.881 469.362, 855.690 446.732, 863.407 414.936 C 865.742 405.314, 865.571 404.136, 861.591 402.474 C 855.793 400.051, 848.840 398.835, 840.433 398.772 C 829.970 398.695, 823.443 400.249, 813 405.304 C 805.978 408.704, 802.836 411.077, 794.927 418.960 L 785.355 428.500 785.309 417.500 C 785.169 384.180, 765.744 353.107, 737.479 340.991 L 733.004 339.073 731.114 342.786 M 287.667 394.667 C 287.300 395.033, 287 408.518, 287 424.631 C 287 451.553, 287.142 453.997, 288.750 454.756 C 289.712 455.211, 306.700 455.340, 326.500 455.042 L 362.500 454.500 362.781 426.500 C 362.935 411.100, 362.814 397.488, 362.511 396.250 L 361.962 394 325.148 394 C 304.900 394, 288.033 394.300, 287.667 394.667 M 380.035 395.934 C 378.358 399.068, 378.656 451.147, 380.364 453.483 C 381.657 455.251, 383.658 455.340, 418.552 455.180 C 446.849 455.049, 455.560 454.719, 456.173 453.755 C 457.095 452.302, 457.301 397.949, 456.393 395.582 C 455.855 394.178, 451.571 394, 418.428 394 C 382.517 394, 381.030 394.075, 380.035 395.934 M 473.667 394.667 C 473.300 395.033, 473 408.507, 473 424.608 C 473 446.947, 473.296 454.066, 474.250 454.658 C 476.347 455.960, 546.380 454.997, 547.235 453.654 C 548.115 452.271, 548.263 397.850, 547.393 395.582 C 546.855 394.180, 542.671 394, 510.560 394 C 490.635 394, 474.033 394.300, 473.667 394.667 M 565.200 395.200 C 564.322 396.078, 564 404.126, 564 425.165 C 564 451.569, 564.144 454, 565.750 454.781 C 566.712 455.249, 583.700 455.378, 603.500 455.066 L 639.500 454.500 639.781 426.500 C 639.935 411.100, 639.814 397.488, 639.511 396.250 L 638.962 394 602.681 394 C 575.796 394, 566.089 394.311, 565.200 395.200 M 679.663 445.447 C 673.822 447.849, 672.326 448.849, 666.250 454.415 C 661.243 459.002, 662.138 465, 667.829 465 C 669.165 465, 673.450 463.848, 677.352 462.441 C 695.669 455.834, 704.736 461.459, 712.294 484.119 C 718.572 502.941, 719.787 532.285, 714.931 547.830 C 712.985 554.061, 712.856 555.296, 714.071 556.065 C 718.876 559.106, 724.760 553.756, 727.942 543.452 C 735.041 520.469, 731.986 481.278, 721.518 461.034 C 718.671 455.529, 710.836 447.863, 705.500 445.363 C 698.495 442.080, 687.768 442.115, 679.663 445.447 M 197.200 471.200 C 195.489 472.911, 195.489 526.089, 197.200 527.800 C 198.087 528.687, 207.451 529, 233.129 529 C 263.550 529, 268.054 528.803, 269.448 527.409 C 270.824 526.033, 271.030 522.369, 270.965 500.328 C 270.923 486.309, 270.475 473.750, 269.969 472.420 L 269.050 470 233.725 470 C 207.583 470, 198.088 470.312, 197.200 471.200 M 288.250 470.662 C 287.291 471.049, 287 477.764, 287 499.476 C 287 523.480, 287.224 527.872, 288.472 528.351 C 291.487 529.508, 360.201 529.078, 361.628 527.894 C 363.497 526.342, 363.659 473.059, 361.800 471.200 C 360.909 470.309, 351.457 470.020, 325.050 470.079 C 305.498 470.122, 288.938 470.385, 288.250 470.662 M 380.200 471.200 C 379.327 472.073, 379 479.673, 379 499.129 C 379 522.094, 379.221 526.078, 380.571 527.429 C 381.942 528.799, 386.770 529, 418.371 529 C 445.216 529, 454.911 528.689, 455.800 527.800 C 457.511 526.089, 457.511 472.911, 455.800 471.200 C 454.079 469.479, 381.921 469.479, 380.200 471.200 M 474.200 471.200 C 472.489 472.911, 472.489 526.089, 474.200 527.800 C 475.920 529.520, 545.080 529.520, 546.800 527.800 C 548.511 526.089, 548.511 472.911, 546.800 471.200 C 545.080 469.480, 475.920 469.480, 474.200 471.200 M 565.035 471.934 C 564.398 473.125, 564 483.857, 564 499.863 C 564 522.707, 564.200 526.058, 565.653 527.510 C 567.062 528.919, 568.729 529.066, 576.903 528.506 C 595.232 527.249, 616.883 523.044, 632.500 517.708 L 639.500 515.316 639.770 494.035 C 639.959 479.181, 639.695 472.338, 638.898 471.377 C 637.966 470.255, 631.128 470, 601.913 470 C 567.500 470, 566.029 470.077, 565.035 471.934 M 678.521 476.686 C 672.405 479.479, 668.845 480.439, 663.271 480.796 L 656 481.263 656 495.132 C 656 502.759, 656.238 509, 656.529 509 C 657.762 509, 670.004 502.418, 676 498.530 C 692.803 487.637, 699.212 479.216, 694.171 474.655 C 691.397 472.145, 687.302 472.676, 678.521 476.686 M 695 499.760 C 684.564 508.482, 674.458 514.920, 661.556 521.067 C 641.078 530.823, 620.502 537.029, 594.500 541.292 C 581.635 543.402, 579.478 543.430, 387 543.962 L 192.500 544.500 187.136 546.780 C 172.047 553.195, 162.953 564.464, 159.994 580.415 C 158.361 589.216, 159.265 607.319, 161.929 619.168 C 163.911 627.986, 170.985 647.356, 173.252 650.175 C 174.547 651.785, 191.869 656.591, 207.500 659.678 C 220.510 662.246, 261.284 662.282, 271.773 659.733 C 282.167 657.207, 291.581 653.480, 298.500 649.151 C 306.758 643.984, 307.478 643.802, 310.436 646.128 C 316.928 651.235, 311.422 658.838, 295.712 666.464 C 276.486 675.796, 249.524 679.020, 219.994 675.518 C 208.320 674.134, 191.038 670.495, 184.750 668.098 C 183.238 667.521, 182 667.389, 182 667.804 C 182 668.218, 184.753 672.820, 188.118 678.029 C 216.046 721.261, 262.769 754.908, 322.624 774.892 C 343.601 781.895, 374.239 787.999, 398.806 790.068 C 416.748 791.579, 458.080 790.734, 474 788.531 C 553.215 777.565, 621.669 745.847, 672.947 696.348 L 684.500 685.197 661.433 661.848 C 634.802 634.892, 632.754 631.887, 632.152 618.880 L 631.800 611.260 645.524 576.880 C 653.072 557.971, 660.751 539.505, 662.588 535.845 C 669.897 521.287, 683.892 510.760, 697.823 509.343 L 704.146 508.700 703.472 503.793 C 702.057 493.506, 702.329 493.636, 695 499.760 M 696.615 522.639 C 693.206 523.686, 690.158 525.712, 686.523 529.346 C 681.546 534.324, 680.868 535.698, 671.139 560.527 C 665.542 574.812, 658.851 591.450, 656.270 597.500 C 652.895 605.410, 651.470 610.186, 651.195 614.500 C 650.480 625.741, 651.312 626.770, 707.868 684.566 C 735.570 712.875, 761.039 738.499, 764.466 741.508 C 772.905 748.916, 778.645 751.382, 787.500 751.399 C 799.869 751.424, 802.085 749.886, 846.986 710.106 C 880.257 680.630, 882.375 678.077, 882.375 667.444 C 882.375 662.473, 881.739 659.912, 879.245 654.852 C 875.775 647.807, 872.556 644.220, 825.567 595.018 C 809.030 577.703, 789.045 556.778, 781.156 548.518 C 763.914 530.466, 758.212 525.612, 751.118 522.950 C 748.159 521.839, 745.622 521.058, 745.483 521.215 C 745.343 521.372, 744.509 526.085, 743.630 531.689 C 742.751 537.294, 741.421 543.652, 740.675 545.818 C 739.507 549.207, 739.526 550.157, 740.813 552.614 C 743.801 558.315, 742.045 567.141, 736.470 574.451 C 730.235 582.625, 716.670 585.419, 706.500 580.623 C 700.542 577.813, 697.826 575.048, 695.084 569 C 690.774 559.494, 693.214 548.137, 700.891 541.968 L 705 538.665 705 529.833 C 705 519.822, 705.208 520.001, 696.615 522.639 M 257.585 590.242 C 252.235 591.656, 245.463 598.571, 243.952 604.161 C 241.609 612.835, 246.082 622.961, 254.055 627.028 C 260.831 630.485, 266.137 630.657, 272.342 627.621 C 285.375 621.245, 287.886 605.349, 277.446 595.309 C 271.368 589.464, 265.852 588.056, 257.585 590.242 M 759.593 607.250 C 758.208 608.487, 756.775 610.776, 756.408 612.337 C 755.780 615.001, 757.616 617.052, 786.676 646.156 C 815.257 674.780, 817.919 677.179, 821.647 677.679 C 825.181 678.154, 825.949 677.880, 827.841 675.475 C 832.340 669.756, 832.447 669.900, 798.713 636.229 C 765.005 602.583, 764.902 602.507, 759.593 607.250 M 718.455 632.455 C 716.843 634.066, 716 636.039, 716 638.201 C 716 641.186, 718.860 644.347, 746.750 672.184 C 763.663 689.064, 778.763 703.352, 780.306 703.934 C 782.456 704.745, 783.773 704.652, 785.935 703.534 C 789.129 701.882, 790 700.205, 790 695.707 C 790 692.940, 786.552 689.116, 760.250 662.716 C 743.888 646.293, 729.285 632.213, 727.800 631.428 C 723.906 629.369, 721.248 629.661, 718.455 632.455 M 591.044 660.802 C 587.474 664.372, 587.261 666.841, 590.028 672.557 C 594.579 681.959, 607.957 692.200, 615.687 692.200 C 621.215 692.200, 624 689.691, 624 684.711 C 624 674.476, 610.125 660.286, 598.294 658.421 C 594.508 657.825, 593.784 658.062, 591.044 660.802 M 543.229 673.669 C 541.362 674.420, 538.999 679.480, 539.010 682.700 C 539.026 687.227, 543.539 695.633, 549.128 701.541 C 557.394 710.281, 564.200 713.663, 570.112 711.968 C 576.803 710.049, 577.758 703.837, 572.867 694.050 C 566.229 680.766, 551.229 670.451, 543.229 673.669 M 489.455 685.455 C 484 690.909, 487.786 704.145, 497.995 715.308 C 506.628 724.747, 515.175 727.636, 519.826 722.686 C 528.673 713.268, 509.735 683, 494.994 683 C 493.052 683, 491 683.909, 489.455 685.455 M 434.250 777.728 C 436.313 777.944, 439.688 777.944, 441.750 777.728 C 443.813 777.513, 442.125 777.336, 438 777.336 C 433.875 777.336, 432.188 777.513, 434.250 777.728" stroke="none" fill="#1D1D1D" fill-rule="evenodd"/></svg>