<?xml version="1.0" encoding="UTF-8" standalone="no"?>
<svg
   width="759.117"
   height="759.117"
   viewBox="0 0 759.117 759.117"
   version="1.1"
   id="svg1"
   sodipodi:docname="docker-notes-icon-outline.svg"
   inkscape:version="1.4.3 (0d15f75, 2025-12-25)"
   xmlns:inkscape="http://www.inkscape.org/namespaces/inkscape"
   xmlns:sodipodi="http://sodipodi.sourceforge.net/DTD/sodipodi-0.dtd"
   xmlns="http://www.w3.org/2000/svg"
   xmlns:svg="http://www.w3.org/2000/svg">
  <defs
     id="defs1" />
  <sodipodi:namedview
     id="namedview1"
     pagecolor="#ffffff"
     bordercolor="#000000"
     borderopacity="0.25"
     inkscape:showpageshadow="2"
     inkscape:pageopacity="0.0"
     inkscape:pagecheckerboard="0"
     inkscape:deskcolor="#d1d1d1"
     inkscape:zoom="0.78808594"
     inkscape:cx="371.78686"
     inkscape:cy="306.43866"
     inkscape:window-width="2560"
     inkscape:window-height="1009"
     inkscape:window-x="-8"
     inkscape:window-y="1072"
     inkscape:window-maximized="1"
     inkscape:current-layer="svg1" />
  <g
     id="g1"
     transform="translate(0,78.066091)">
    <path
       d="m 322.3734,2.3682655 c -7.595,4.598 -7.504,3.996 -7.551,49.8749995 l -0.042,40.75 -40.75,0.002 c -45.437,10e-4 -45.368,-0.008 -49.98,6.896 -2.252,3.370005 -2.27,3.681005 -2.27,38.250005 v 34.852 h -41.05 c -44.353,0 -43.761,-0.066 -48.95,5.484 l -2.5,2.675 -0.288,33.92 -0.288,33.921 H 88.146398 c -45.319,0 -44.222,-0.16 -48.272,7.046 -2.01,3.576 -2.094,5.077 -2.094,37.219 v 33.492 l -2.992,1.24 c -5.528,2.289 -15.295,9.783 -20.117,15.434 -9.506,11.14 -13.71600004,23.303 -14.56200004,42.069 -1.82099996,40.426 19.19800004,88.579 55.11100004,126.257 43.661,45.806 99.983002,74.172 172.399002,86.827 31.587,5.52 86.865,5.917 117.082,0.841 27.267,-4.58 47.526,-9.487 69.579,-16.853 51.259,-17.122 94.311,-43.125 132.032,-79.744 l 9.032,-8.769 28.968,29.084 c 30.906,31.03 37.221,36.48 46.243,39.906 8.671,3.293 21.188,3.765 29.874,1.126 10.766,-3.27 16.639,-7.764 52.165,-39.921 31.049,-28.104 39.697,-36.908 42.688,-43.46 5.553,-12.165 5.084,-24.081 -1.468,-37.294 -4.617,-9.312 -9.071,-14.725 -28.387,-34.5 -7.79,-7.975 -22.697,-23.275 -33.128,-34 -10.43,-10.725 -26.794,-27.483 -36.364,-37.241 l -17.4,-17.741 3.584,-8.343 c 4.264,-9.927 8.221,-20.921 9.15,-25.425 0.368,-1.787 0.983,-3.25 1.367,-3.25 0.383,0 4.51,-0.474 9.17,-1.054 14.77,-1.837 26.644,-6.063 38.474,-13.692 8.656,-5.582 12.005,-8.487 19.643,-17.034 7.891,-8.831 13.158,-17.799 17.544,-29.869 3.059,-8.417 3.597,-11.182 3.696,-18.999 0.112,-8.78 -0.005,-9.299 -2.927,-12.918 -6.648,-8.235 -20.842,-12.861 -39.456,-12.859 -13.655,10e-4 -20.75,1.586 -33.734,7.532 -3.581,1.64 -6.614,2.849 -6.741,2.687 -0.126,-0.161 -0.779,-2.544 -1.451,-5.294 -0.672,-2.75 -2.931,-8.653 -5.021,-13.119 -10.604,-22.653 -27.946,-39.773 -48.481,-47.859 -5.734,-2.258 -8.097,-2.662 -13.716,-2.344 -5.886,0.333 -7.205,0.779 -9.912,3.353 -9.265,8.81 -14.947,28.712 -14.94,52.329 0.006,18.698 3.484,36.122 10.457,52.382 0.634,1.479 -0.108,1.351 -4.909,-0.847 -6.891,-3.154 -22.396,-4.421 -30.215,-2.468 -6.312,1.576 -16.008,5.812 -20.02,8.745 -1.751,1.281 -3.417,2.328 -3.703,2.328 -0.286,0 -0.653,-11.668 -0.817,-25.929 -0.434,-37.909 3.783,-35.067 -52.047,-35.069 l -40.75,-0.002 v -81.352005 -81.352 l -2.27,-3.3979995 c -4.632,-6.93400003 -4.344,-6.89500003 -51.73,-6.89100003078 l -42.5,0.003000001 -3.907,2.36500003 m 10.517,15.9919995 c -0.812,0.979 -1.06,11.86 -0.872,38.25 l 0.262,36.883 36.433,0.263 c 28.482,0.205 36.608,-0.013 37.235,-1 1.374,-2.165 1.024,-73.171 -0.368,-74.563 -1.866,-1.866 -71.135,-1.706 -72.69,0.167 m -93.539,92.204005 c -1.357,1.358 -1.571,5.574 -1.571,30.929 0,25.355 0.214,29.571 1.571,30.929 1.371,1.37 6.199,1.571 37.8,1.571 26.845,0 36.54,-0.311 37.429,-1.2 0.88,-0.88 1.2,-9.14 1.2,-30.929 0,-25.692 -0.213,-29.941 -1.571,-31.3 -1.371,-1.37 -6.165,-1.571 -37.429,-1.571 -31.264,0 -36.058,0.201 -37.429,1.571 m 93.629,-0.371 c -1.715,1.715 -1.715,60.885 0,62.6 1.72,1.72 70.88,1.72 72.6,0 1.564,-1.564 1.717,-58.965 0.165,-61.866 -0.994,-1.856 -2.458,-1.934 -36.3,-1.934 -26.095,0 -35.577,0.312 -36.465,1.2 m 256.914,27.586 c -5.359,10.537 -8.785,30.592 -7.624,44.642 1.755,21.234 8.394,38.949 20.518,54.751 l 2.056,2.68 -5.849,6.32 -5.849,6.321 1.747,4.5 c 3.052,7.864 6.935,25.629 7.674,35.108 l 0.713,9.161 7.363,2.388 c 4.05,1.313 8.312,3.053 9.472,3.865 1.161,0.813 2.614,1.478 3.23,1.478 2.041,0 9.065,-20.138 12.343,-35.384 l 1.744,-8.116 9.424,-0.232 c 36.805,-0.906 67.614,-23.536 75.331,-55.332 2.335,-9.622 2.164,-10.8 -1.816,-12.462 -5.798,-2.423 -12.751,-3.639 -21.158,-3.702 -10.463,-0.077 -16.99,1.477 -27.433,6.532 -7.022,3.4 -10.164,5.773 -18.073,13.656 l -9.572,9.54 -0.046,-11 c -0.14,-33.32 -19.565,-64.393 -47.83,-76.509 l -4.475,-1.918 -1.89,3.713 m -443.447,51.881 c -0.367,0.366 -0.667,13.851 -0.667,29.964 0,26.922 0.142,29.366 1.75,30.125 0.962,0.455 17.95,0.584 37.75,0.286 l 36,-0.542 0.281,-28 c 0.154,-15.4 0.033,-29.012 -0.27,-30.25 l -0.549,-2.25 h -36.814 c -20.248,0 -37.115,0.3 -37.481,0.667 m 92.368,1.267 c -1.677,3.134 -1.379,55.213 0.329,57.549 1.293,1.768 3.294,1.857 38.188,1.697 28.297,-0.131 37.008,-0.461 37.621,-1.425 0.922,-1.453 1.128,-55.806 0.22,-58.173 -0.538,-1.404 -4.822,-1.582 -37.965,-1.582 -35.911,0 -37.398,0.075 -38.393,1.934 m 93.632,-1.267 c -0.367,0.366 -0.667,13.84 -0.667,29.941 0,22.339 0.296,29.458 1.25,30.05 2.097,1.302 72.13,0.339 72.985,-1.004 0.88,-1.383 1.028,-55.804 0.158,-58.072 -0.538,-1.402 -4.722,-1.582 -36.833,-1.582 -19.925,0 -36.527,0.3 -36.893,0.667 m 91.533,0.533 c -0.878,0.878 -1.2,8.926 -1.2,29.965 0,26.404 0.144,28.835 1.75,29.616 0.962,0.468 17.95,0.597 37.75,0.285 l 36,-0.566 0.281,-28 c 0.154,-15.4 0.033,-29.012 -0.27,-30.25 l -0.549,-2.25 h -36.281 c -26.885,0 -36.592,0.311 -37.481,1.2 m 114.463,50.247 c -5.841,2.402 -7.337,3.402 -13.413,8.968 -5.007,4.587 -4.112,10.585 1.579,10.585 1.336,0 5.621,-1.152 9.523,-2.559 18.317,-6.607 27.384,-0.982 34.942,21.678 6.278,18.822 7.493,48.166 2.637,63.711 -1.946,6.231 -2.075,7.466 -0.86,8.235 4.805,3.041 10.689,-2.309 13.871,-12.613 7.099,-22.983 4.044,-62.174 -6.424,-82.418 -2.847,-5.505 -10.682,-13.171 -16.018,-15.671 -7.005,-3.283 -17.732,-3.248 -25.837,0.084 m -482.463002,25.753 c -1.711,1.711 -1.711,54.889 0,56.6 0.887,0.887 10.251,1.2 35.929,1.2 30.421002,0 34.925002,-0.197 36.319002,-1.591 1.376,-1.376 1.582,-5.04 1.517,-27.081 -0.042,-14.019 -0.49,-26.578 -0.996,-27.908 l -0.919,-2.42 H 92.505398 c -26.142,0 -35.637,0.312 -36.525,1.2 m 91.050002,-0.538 c -0.959,0.387 -1.25,7.102 -1.25,28.814 0,24.004 0.224,28.396 1.472,28.875 3.015,1.157 71.729,0.727 73.156,-0.457 1.869,-1.552 2.031,-54.835 0.172,-56.694 -0.891,-0.891 -10.343,-1.18 -36.75,-1.121 -19.552,0.043 -36.112,0.306 -36.8,0.583 m 91.95,0.538 c -0.873,0.873 -1.2,8.473 -1.2,27.929 0,22.965 0.221,26.949 1.571,28.3 1.371,1.37 6.199,1.571 37.8,1.571 26.845,0 36.54,-0.311 37.429,-1.2 1.711,-1.711 1.711,-54.889 0,-56.6 -1.721,-1.721 -73.879,-1.721 -75.6,0 m 94,0 c -1.711,1.711 -1.711,54.889 0,56.6 1.72,1.72 70.88,1.72 72.6,0 1.711,-1.711 1.711,-54.889 0,-56.6 -1.72,-1.72 -70.88,-1.72 -72.6,0 m 90.835,0.734 c -0.637,1.191 -1.035,11.923 -1.035,27.929 0,22.844 0.2,26.195 1.653,27.647 1.409,1.409 3.076,1.556 11.25,0.996 18.329,-1.257 39.98,-5.462 55.597,-10.798 l 7,-2.392 0.27,-21.281 c 0.189,-14.854 -0.075,-21.697 -0.872,-22.658 -0.932,-1.122 -7.77,-1.377 -36.985,-1.377 -34.413,0 -35.884,0.077 -36.878,1.934 m 113.486,4.752 c -6.116,2.793 -9.676,3.753 -15.25,4.11 l -7.271,0.467 v 13.869 c 0,7.627 0.238,13.868 0.529,13.868 1.233,0 13.475,-6.582 19.471,-10.47 16.803,-10.893 23.212,-19.314 18.171,-23.875 -2.774,-2.51 -6.869,-1.979 -15.65,2.031 m 16.479,23.074 c -10.436,8.722 -20.542,15.16 -33.444,21.307 -20.478,9.756 -41.054,15.962 -67.056,20.225 -12.865,2.11 -15.022,2.138 -207.5,2.67 l -194.500002,0.538 -5.364,2.28 c -15.089,6.415 -24.183,17.684 -27.142,33.635 -1.633,8.801 -0.729,26.904 1.935,38.753 1.982,8.818 9.056,28.188 11.323,31.007 1.295,1.61 18.617,6.416 34.248,9.503 13.01,2.568 53.784002,2.604 64.273002,0.055 10.394,-2.526 19.808,-6.253 26.727,-10.582 8.258,-5.167 8.978,-5.349 11.936,-3.023 6.492,5.107 0.986,12.71 -14.724,20.336 -19.226,9.332 -46.188,12.556 -75.718002,9.054 -11.674,-1.384 -28.956,-5.023 -35.244,-7.42 -1.512,-0.577 -2.75,-0.709 -2.75,-0.294 0,0.414 2.753,5.016 6.118,10.225 27.928,43.232 74.651002,76.879 134.506002,96.863 20.977,7.003 51.615,13.107 76.182,15.176 17.942,1.511 59.274,0.666 75.194,-1.537 79.215,-10.966 147.669,-42.684 198.947,-92.183 l 11.553,-11.151 -23.067,-23.349 c -26.631,-26.956 -28.679,-29.961 -29.281,-42.968 l -0.352,-7.62 13.724,-34.38 c 7.548,-18.909 15.227,-37.375 17.064,-41.035 7.309,-14.558 21.304,-25.085 35.235,-26.502 l 6.323,-0.643 -0.674,-4.907 c -1.415,-10.287 -1.143,-10.157 -8.472,-4.033 m 1.615,22.879 c -3.409,1.047 -6.457,3.073 -10.092,6.707 -4.977,4.978 -5.655,6.352 -15.384,31.181 -5.597,14.285 -12.288,30.923 -14.869,36.973 -3.375,7.91 -4.8,12.686 -5.075,17 -0.715,11.241 0.117,12.27 56.673,70.066 27.702,28.309 53.171,53.933 56.598,56.942 8.439,7.408 14.179,9.874 23.034,9.891 12.369,0.025 14.585,-1.513 59.486,-41.293 33.271,-29.476 35.389,-32.029 35.389,-42.662 0,-4.971 -0.636,-7.532 -3.13,-12.592 -3.47,-7.045 -6.689,-10.632 -53.678,-59.834 -16.537,-17.315 -36.522,-38.24 -44.411,-46.5 -17.242,-18.052 -22.944,-22.906 -30.038,-25.568 -2.959,-1.111 -5.496,-1.892 -5.635,-1.735 -0.14,0.157 -0.974,4.87 -1.853,10.474 -0.879,5.605 -2.209,11.963 -2.955,14.129 -1.168,3.389 -1.149,4.339 0.138,6.796 2.988,5.701 1.232,14.527 -4.343,21.837 -6.235,8.174 -19.8,10.968 -29.97,6.172 -5.958,-2.81 -8.674,-5.575 -11.416,-11.623 -4.31,-9.506 -1.87,-20.863 5.807,-27.032 l 4.109,-3.303 v -8.832 c 0,-10.011 0.208,-9.832 -8.385,-7.194 m -439.03,67.603 c -5.35,1.414 -12.122,8.329 -13.633,13.919 -2.343,8.674 2.13,18.8 10.103,22.867 6.776,3.457 12.082,3.629 18.287,0.593 13.033,-6.376 15.544,-22.272 5.104,-32.312 -6.078,-5.845 -11.594,-7.253 -19.861,-5.067 m 502.008,17.008 c -1.385,1.237 -2.818,3.526 -3.185,5.087 -0.628,2.664 1.208,4.715 30.268,33.819 28.581,28.624 31.243,31.023 34.971,31.523 3.534,0.475 4.302,0.201 6.194,-2.204 4.499,-5.719 4.606,-5.575 -29.128,-39.246 -33.708,-33.646 -33.811,-33.722 -39.12,-28.979 m -41.138,25.205 c -1.612,1.611 -2.455,3.584 -2.455,5.746 0,2.985 2.86,6.146 30.75,33.983 16.913,16.88 32.013,31.168 33.556,31.75 2.15,0.811 3.467,0.718 5.629,-0.4 3.194,-1.652 4.065,-3.329 4.065,-7.827 0,-2.767 -3.448,-6.591 -29.75,-32.991 -16.362,-16.423 -30.965,-30.503 -32.45,-31.288 -3.894,-2.059 -6.552,-1.767 -9.345,1.027 m -127.411,28.347 c -3.57,3.57 -3.783,6.039 -1.016,11.755 4.551,9.402 17.929,19.643 25.659,19.643 5.528,0 8.313,-2.509 8.313,-7.489 0,-10.235 -13.875,-24.425 -25.706,-26.29 -3.786,-0.596 -4.51,-0.359 -7.25,2.381 m -47.815,12.867 c -1.867,0.751 -4.23,5.811 -4.219,9.031 0.016,4.527 4.529,12.933 10.118,18.841 8.266,8.74 15.072,12.122 20.984,10.427 6.691,-1.919 7.646,-8.131 2.755,-17.918 -6.638,-13.284 -21.638,-23.599 -29.638,-20.381 m -53.774,11.786 c -5.455,5.454 -1.669,18.69 8.54,29.853 8.633,9.439 17.18,12.328 21.831,7.378 8.847,-9.418 -10.091,-39.686 -24.832,-39.686 -1.942,0 -3.994,0.909 -5.539,2.455 m -55.205,92.273 c 2.063,0.216 5.438,0.216 7.5,0 2.063,-0.215 0.375,-0.392 -3.75,-0.392 -4.125,0 -5.812,0.177 -3.75,0.392"
       stroke="none"
       fill="#1d1d1d"
       fill-rule="evenodd"
       id="path1" />
  </g>
</svg>
